STARTFONT 2.1
COMMENT edited by pv 6Jun12
COMMENT iso8859-5 charset font
COMMENT generated with /usr/bin/bdfassemble iso8859-5.txt
COMMENT on 1998-05-25 by czyborra@cs.tu-berlin.de
COMMENT pv added and remapped for Uzbek:
COMMENT s/ҳ/џ/g
COMMENT s/ғ/ѓ/g
COMMENT s/қ/ќ/g
FONT -misc-fixed-medium-r-normal--16-160-75-75-c-80-iso8859-5
SIZE 16 75 75
FONTBOUNDINGBOX 8 16 0 -2
STARTPROPERTIES 12
FOUNDRY "Fine"
FAMILY_NAME ""
WEIGHT_NAME "Medium"
SLANT "R"
SETWIDTH_NAME "Normal"
SPACING "C"
CHARSET_REGISTRY "ISO-8859"
CHARSET_ENCODING "1"
COPYRIGHT "Designer of this font retains full rights under the law"
FONT_ASCENT  14
FONT_DESCENT 2
ENDPROPERTIES
CHARS 199
STARTCHAR U+0020 SPACE
ENCODING 32
SWIDTH 500 0
DWIDTH 8 0
BBX 0 0 0 0
BITMAP
ENDCHAR
STARTCHAR U+0021 EXCLAMATION MARK
ENCODING 33
SWIDTH 500 0
DWIDTH 8 0
BBX 1 10 4 0
BITMAP
80
80
80
80
80
80
80
00
80
80
ENDCHAR
STARTCHAR U+0022 QUOTATION MARK
ENCODING 34
SWIDTH 500 0
DWIDTH 8 0
BBX 5 4 2 8
BITMAP
88
88
88
88
ENDCHAR
STARTCHAR U+0023 NUMBER SIGN
ENCODING 35
SWIDTH 500 0
DWIDTH 8 0
BBX 6 10 1 0
BITMAP
24
24
24
fc
48
48
fc
90
90
90
ENDCHAR
STARTCHAR U+0024 DOLLAR SIGN
ENCODING 36
SWIDTH 500 0
DWIDTH 8 0
BBX 7 10 1 0
BITMAP
10
7c
92
90
70
1c
12
92
7c
10
ENDCHAR
STARTCHAR U+0025 PERCENT SIGN
ENCODING 37
SWIDTH 500 0
DWIDTH 8 0
BBX 7 10 1 0
BITMAP
62
94
94
68
10
10
2c
52
52
8c
ENDCHAR
STARTCHAR U+0026 AMPERSAND
ENCODING 38
SWIDTH 500 0
DWIDTH 8 0
BBX 7 10 1 0
BITMAP
38
44
44
44
38
72
8a
84
8c
72
ENDCHAR
STARTCHAR U+0027 APOSTROPHE
ENCODING 39
SWIDTH 500 0
DWIDTH 8 0
BBX 1 4 4 8
BITMAP
80
80
80
80
ENDCHAR
STARTCHAR U+0028 LEFT PARENTHESIS
ENCODING 40
SWIDTH 500 0
DWIDTH 8 0
BBX 3 12 3 -1
BITMAP
20
40
40
80
80
80
80
80
80
40
40
20
ENDCHAR
STARTCHAR U+0029 RIGHT PARENTHESIS
ENCODING 41
SWIDTH 500 0
DWIDTH 8 0
BBX 3 12 2 -1
BITMAP
80
40
40
20
20
20
20
20
20
40
40
80
ENDCHAR
STARTCHAR U+002A ASTERISK
ENCODING 42
SWIDTH 500 0
DWIDTH 8 0
BBX 7 7 1 1
BITMAP
10
92
54
38
54
92
10
ENDCHAR
STARTCHAR U+002B PLUS SIGN
ENCODING 43
SWIDTH 500 0
DWIDTH 8 0
BBX 7 7 1 1
BITMAP
10
10
10
fe
10
10
10
ENDCHAR
STARTCHAR U+002C COMMA
ENCODING 44
SWIDTH 500 0
DWIDTH 8 0
BBX 2 4 3 -2
BITMAP
c0
40
40
80
ENDCHAR
STARTCHAR U+002D HYPHEN-MINUS
ENCODING 45
SWIDTH 500 0
DWIDTH 8 0
BBX 6 1 1 4
BITMAP
fc
ENDCHAR
STARTCHAR U+002E FULL STOP
ENCODING 46
SWIDTH 500 0
DWIDTH 8 0
BBX 2 2 3 0
BITMAP
c0
c0
ENDCHAR
STARTCHAR U+002F SOLIDUS
ENCODING 47
SWIDTH 500 0
DWIDTH 8 0
BBX 6 10 1 0
BITMAP
04
04
08
10
10
20
20
40
80
80
ENDCHAR
STARTCHAR U+0030 DIGIT ZERO
ENCODING 48
SWIDTH 500 0
DWIDTH 8 0
BBX 6 10 1 0
BITMAP
30
48
84
84
84
84
84
84
48
30
ENDCHAR
STARTCHAR U+0031 DIGIT ONE
ENCODING 49
SWIDTH 500 0
DWIDTH 8 0
BBX 5 10 2 0
BITMAP
20
60
a0
20
20
20
20
20
20
f8
ENDCHAR
STARTCHAR U+0032 DIGIT TWO
ENCODING 50
SWIDTH 500 0
DWIDTH 8 0
BBX 6 10 1 0
BITMAP
78
84
84
04
18
20
40
80
80
fc
ENDCHAR
STARTCHAR U+0033 DIGIT THREE
ENCODING 51
SWIDTH 500 0
DWIDTH 8 0
BBX 6 10 1 0
BITMAP
78
84
84
04
38
04
04
84
84
78
ENDCHAR
STARTCHAR U+0034 DIGIT FOUR
ENCODING 52
SWIDTH 500 0
DWIDTH 8 0
BBX 6 10 1 0
BITMAP
08
18
28
48
88
88
fc
08
08
08
ENDCHAR
STARTCHAR U+0035 DIGIT FIVE
ENCODING 53
SWIDTH 500 0
DWIDTH 8 0
BBX 6 10 1 0
BITMAP
fc
80
80
80
f8
04
04
04
84
78
ENDCHAR
STARTCHAR U+0036 DIGIT SIX
ENCODING 54
SWIDTH 500 0
DWIDTH 8 0
BBX 6 10 1 0
BITMAP
38
40
80
80
f8
84
84
84
84
78
ENDCHAR
STARTCHAR U+0037 DIGIT SEVEN
ENCODING 55
SWIDTH 500 0
DWIDTH 8 0
BBX 6 10 1 0
BITMAP
fc
04
04
08
08
08
10
10
10
10
ENDCHAR
STARTCHAR U+0038 DIGIT EIGHT
ENCODING 56
SWIDTH 500 0
DWIDTH 8 0
BBX 6 10 1 0
BITMAP
78
84
84
84
78
84
84
84
84
78
ENDCHAR
STARTCHAR U+0039 DIGIT NINE
ENCODING 57
SWIDTH 500 0
DWIDTH 8 0
BBX 6 10 1 0
BITMAP
78
84
84
84
7c
04
04
04
08
70
ENDCHAR
STARTCHAR U+003A COLON
ENCODING 58
SWIDTH 500 0
DWIDTH 8 0
BBX 2 7 3 1
BITMAP
c0
c0
00
00
00
c0
c0
ENDCHAR
STARTCHAR U+003B SEMICOLON
ENCODING 59
SWIDTH 500 0
DWIDTH 8 0
BBX 2 9 3 -1
BITMAP
c0
c0
00
00
00
c0
40
40
80
ENDCHAR
STARTCHAR U+003C LESS-THAN SIGN
ENCODING 60
SWIDTH 500 0
DWIDTH 8 0
BBX 5 9 2 0
BITMAP
08
10
20
40
80
40
20
10
08
ENDCHAR
STARTCHAR U+003D EQUALS SIGN
ENCODING 61
SWIDTH 500 0
DWIDTH 8 0
BBX 6 5 1 2
BITMAP
fc
00
00
00
fc
ENDCHAR
STARTCHAR U+003E GREATER-THAN SIGN
ENCODING 62
SWIDTH 500 0
DWIDTH 8 0
BBX 5 9 1 0
BITMAP
80
40
20
10
08
10
20
40
80
ENDCHAR
STARTCHAR U+003F QUESTION MARK
ENCODING 63
SWIDTH 500 0
DWIDTH 8 0
BBX 6 10 1 0
BITMAP
78
84
84
04
08
10
10
00
10
10
ENDCHAR
STARTCHAR U+0040 COMMERCIAL AT
ENCODING 64
SWIDTH 500 0
DWIDTH 8 0
BBX 6 10 1 0
BITMAP
38
44
94
ac
a4
a4
a4
9c
40
3c
ENDCHAR
STARTCHAR U+0041 LATIN CAPITAL LETTER A
ENCODING 65
SWIDTH 500 0
DWIDTH 8 0
BBX 6 10 1 0
BITMAP
30
48
48
84
84
fc
84
84
84
84
ENDCHAR
STARTCHAR U+0042 LATIN CAPITAL LETTER B
ENCODING 66
SWIDTH 500 0
DWIDTH 8 0
BBX 6 10 1 0
BITMAP
f8
84
84
84
f8
84
84
84
84
f8
ENDCHAR
STARTCHAR U+0043 LATIN CAPITAL LETTER C
ENCODING 67
SWIDTH 500 0
DWIDTH 8 0
BBX 6 10 1 0
BITMAP
78
84
84
80
80
80
80
84
84
78
ENDCHAR
STARTCHAR U+0044 LATIN CAPITAL LETTER D
ENCODING 68
SWIDTH 500 0
DWIDTH 8 0
BBX 6 10 1 0
BITMAP
f0
88
84
84
84
84
84
84
88
f0
ENDCHAR
STARTCHAR U+0045 LATIN CAPITAL LETTER E
ENCODING 69
SWIDTH 500 0
DWIDTH 8 0
BBX 6 10 1 0
BITMAP
fc
80
80
80
f8
80
80
80
80
fc
ENDCHAR
STARTCHAR U+0046 LATIN CAPITAL LETTER F
ENCODING 70
SWIDTH 500 0
DWIDTH 8 0
BBX 6 10 1 0
BITMAP
fc
80
80
80
f8
80
80
80
80
80
ENDCHAR
STARTCHAR U+0047 LATIN CAPITAL LETTER G
ENCODING 71
SWIDTH 500 0
DWIDTH 8 0
BBX 6 10 1 0
BITMAP
78
84
84
80
80
9c
84
84
8c
74
ENDCHAR
STARTCHAR U+0048 LATIN CAPITAL LETTER H
ENCODING 72
SWIDTH 500 0
DWIDTH 8 0
BBX 6 10 1 0
BITMAP
84
84
84
84
fc
84
84
84
84
84
ENDCHAR
STARTCHAR U+0049 LATIN CAPITAL LETTER I
ENCODING 73
SWIDTH 500 0
DWIDTH 8 0
BBX 5 10 2 0
BITMAP
f8
20
20
20
20
20
20
20
20
f8
ENDCHAR
STARTCHAR U+004A LATIN CAPITAL LETTER J
ENCODING 74
SWIDTH 500 0
DWIDTH 8 0
BBX 7 10 1 0
BITMAP
3e
08
08
08
08
08
08
88
88
70
ENDCHAR
STARTCHAR U+004B LATIN CAPITAL LETTER K
ENCODING 75
SWIDTH 500 0
DWIDTH 8 0
BBX 6 10 1 0
BITMAP
84
88
90
a0
c0
c0
a0
90
88
84
ENDCHAR
STARTCHAR U+004C LATIN CAPITAL LETTER L
ENCODING 76
SWIDTH 500 0
DWIDTH 8 0
BBX 6 10 1 0
BITMAP
80
80
80
80
80
80
80
80
80
fc
ENDCHAR
STARTCHAR U+004D LATIN CAPITAL LETTER M
ENCODING 77
SWIDTH 500 0
DWIDTH 8 0
BBX 6 10 1 0
BITMAP
84
84
cc
cc
b4
b4
84
84
84
84
ENDCHAR
STARTCHAR U+004E LATIN CAPITAL LETTER N
ENCODING 78
SWIDTH 500 0
DWIDTH 8 0
BBX 6 10 1 0
BITMAP
84
c4
c4
a4
a4
94
94
8c
8c
84
ENDCHAR
STARTCHAR U+004F LATIN CAPITAL LETTER O
ENCODING 79
SWIDTH 500 0
DWIDTH 8 0
BBX 6 10 1 0
BITMAP
78
84
84
84
84
84
84
84
84
78
ENDCHAR
STARTCHAR U+0050 LATIN CAPITAL LETTER P
ENCODING 80
SWIDTH 500 0
DWIDTH 8 0
BBX 6 10 1 0
BITMAP
f8
84
84
84
f8
80
80
80
80
80
ENDCHAR
STARTCHAR U+0051 LATIN CAPITAL LETTER Q
ENCODING 81
SWIDTH 500 0
DWIDTH 8 0
BBX 7 11 1 -1
BITMAP
78
84
84
84
84
84
84
b4
cc
78
06
ENDCHAR
STARTCHAR U+0052 LATIN CAPITAL LETTER R
ENCODING 82
SWIDTH 500 0
DWIDTH 8 0
BBX 6 10 1 0
BITMAP
f8
84
84
84
f8
90
88
88
84
84
ENDCHAR
STARTCHAR U+0053 LATIN CAPITAL LETTER S
ENCODING 83
SWIDTH 500 0
DWIDTH 8 0
BBX 6 10 1 0
BITMAP
78
84
84
80
60
18
04
84
84
78
ENDCHAR
STARTCHAR U+0054 LATIN CAPITAL LETTER T
ENCODING 84
SWIDTH 500 0
DWIDTH 8 0
BBX 7 10 1 0
BITMAP
fe
10
10
10
10
10
10
10
10
10
ENDCHAR
STARTCHAR U+0055 LATIN CAPITAL LETTER U
ENCODING 85
SWIDTH 500 0
DWIDTH 8 0
BBX 6 10 1 0
BITMAP
84
84
84
84
84
84
84
84
84
78
ENDCHAR
STARTCHAR U+0056 LATIN CAPITAL LETTER V
ENCODING 86
SWIDTH 500 0
DWIDTH 8 0
BBX 7 10 1 0
BITMAP
82
82
82
44
44
44
28
28
10
10
ENDCHAR
STARTCHAR U+0057 LATIN CAPITAL LETTER W
ENCODING 87
SWIDTH 500 0
DWIDTH 8 0
BBX 6 10 1 0
BITMAP
84
84
84
84
b4
b4
cc
cc
84
84
ENDCHAR
STARTCHAR U+0058 LATIN CAPITAL LETTER X
ENCODING 88
SWIDTH 500 0
DWIDTH 8 0
BBX 6 10 1 0
BITMAP
84
84
48
48
30
30
48
48
84
84
ENDCHAR
STARTCHAR U+0059 LATIN CAPITAL LETTER Y
ENCODING 89
SWIDTH 500 0
DWIDTH 8 0
BBX 7 10 1 0
BITMAP
82
82
44
44
28
10
10
10
10
10
ENDCHAR
STARTCHAR U+005A LATIN CAPITAL LETTER Z
ENCODING 90
SWIDTH 500 0
DWIDTH 8 0
BBX 6 10 1 0
BITMAP
fc
04
04
08
10
20
40
80
80
fc
ENDCHAR
STARTCHAR U+005B LEFT SQUARE BRACKET
ENCODING 91
SWIDTH 500 0
DWIDTH 8 0
BBX 3 12 4 -1
BITMAP
e0
80
80
80
80
80
80
80
80
80
80
e0
ENDCHAR
STARTCHAR U+005C REVERSE SOLIDUS
ENCODING 92
SWIDTH 500 0
DWIDTH 8 0
BBX 6 10 1 0
BITMAP
80
80
40
20
20
10
10
08
04
04
ENDCHAR
STARTCHAR U+005D RIGHT SQUARE BRACKET
ENCODING 93
SWIDTH 500 0
DWIDTH 8 0
BBX 3 12 1 -1
BITMAP
e0
20
20
20
20
20
20
20
20
20
20
e0
ENDCHAR
STARTCHAR U+005E CIRCUMFLEX ACCENT
ENCODING 94
SWIDTH 500 0
DWIDTH 8 0
BBX 6 3 1 9
BITMAP
30
48
84
ENDCHAR
STARTCHAR U+005F LOW LINE
ENCODING 95
SWIDTH 500 0
DWIDTH 8 0
BBX 8 1 0 4
BITMAP
ff
ENDCHAR
STARTCHAR U+0060 GRAVE ACCENT
ENCODING 96
SWIDTH 500 0
DWIDTH 8 0
BBX 2 4 3 8
BITMAP
c0
80
80
40
ENDCHAR
STARTCHAR U+0061 LATIN SMALL LETTER A
ENCODING 97
SWIDTH 500 0
DWIDTH 8 0
BBX 6 8 1 0
BITMAP
78
84
04
7c
84
84
8c
74
ENDCHAR
STARTCHAR U+0062 LATIN SMALL LETTER B
ENCODING 98
SWIDTH 500 0
DWIDTH 8 0
BBX 6 11 1 0
BITMAP
80
80
80
b8
c4
84
84
84
84
c4
b8
ENDCHAR
STARTCHAR U+0063 LATIN SMALL LETTER C
ENCODING 99
SWIDTH 500 0
DWIDTH 8 0
BBX 6 8 1 0
BITMAP
78
84
80
80
80
80
84
78
ENDCHAR
STARTCHAR U+0064 LATIN SMALL LETTER D
ENCODING 100
SWIDTH 500 0
DWIDTH 8 0
BBX 6 11 1 0
BITMAP
04
04
04
74
8c
84
84
84
84
8c
74
ENDCHAR
STARTCHAR U+0065 LATIN SMALL LETTER E
ENCODING 101
SWIDTH 500 0
DWIDTH 8 0
BBX 6 8 1 0
BITMAP
78
84
84
fc
80
80
84
78
ENDCHAR
STARTCHAR U+0066 LATIN SMALL LETTER F
ENCODING 102
SWIDTH 500 0
DWIDTH 8 0
BBX 5 11 1 0
BITMAP
18
20
20
20
f8
20
20
20
20
20
20
ENDCHAR
STARTCHAR U+0067 LATIN SMALL LETTER G
ENCODING 103
SWIDTH 500 0
DWIDTH 8 0
BBX 6 11 1 -2
BITMAP
04
74
88
88
88
70
40
78
84
84
78
ENDCHAR
STARTCHAR U+0068 LATIN SMALL LETTER H
ENCODING 104
SWIDTH 500 0
DWIDTH 8 0
BBX 6 11 1 0
BITMAP
80
80
80
b8
c4
84
84
84
84
84
84
ENDCHAR
STARTCHAR U+0069 LATIN SMALL LETTER I
ENCODING 105
SWIDTH 500 0
DWIDTH 8 0
BBX 5 11 2 0
BITMAP
20
20
00
60
20
20
20
20
20
20
f8
ENDCHAR
STARTCHAR U+006A LATIN SMALL LETTER J
ENCODING 106
SWIDTH 500 0
DWIDTH 8 0
BBX 7 10 1 -2
BITMAP
84
cc
30
30
30
30
48
84
04
06
ENDCHAR
STARTCHAR U+006B LATIN SMALL LETTER K
ENCODING 107
SWIDTH 500 0
DWIDTH 8 0
BBX 6 10 1 0
BITMAP
80
80
88
90
a0
c0
a0
90
88
84
ENDCHAR
STARTCHAR U+006C LATIN SMALL LETTER L
ENCODING 108
SWIDTH 500 0
DWIDTH 8 0
BBX 5 10 2 0
BITMAP
60
20
20
20
20
20
20
20
20
f8
ENDCHAR
STARTCHAR U+006D LATIN SMALL LETTER M
ENCODING 109
SWIDTH 500 0
DWIDTH 8 0
BBX 7 8 1 0
BITMAP
ec
92
92
92
92
92
92
92
ENDCHAR
STARTCHAR U+006E LATIN SMALL LETTER N
ENCODING 110
SWIDTH 500 0
DWIDTH 8 0
BBX 6 8 1 0
BITMAP
b8
c4
84
84
84
84
84
84
ENDCHAR
STARTCHAR U+006F LATIN SMALL LETTER O
ENCODING 111
SWIDTH 500 0
DWIDTH 8 0
BBX 6 8 1 0
BITMAP
78
84
84
84
84
84
84
78
ENDCHAR
STARTCHAR U+0070 LATIN SMALL LETTER P
ENCODING 112
SWIDTH 500 0
DWIDTH 8 0
BBX 6 10 1 -2
BITMAP
b8
c4
84
84
84
84
c4
b8
80
80
ENDCHAR
STARTCHAR U+0071 LATIN SMALL LETTER Q
ENCODING 113
SWIDTH 500 0
DWIDTH 8 0
BBX 6 10 1 -2
BITMAP
74
8c
84
84
84
84
8c
74
04
04
ENDCHAR
STARTCHAR U+0072 LATIN SMALL LETTER R
ENCODING 114
SWIDTH 500 0
DWIDTH 8 0
BBX 6 8 1 0
BITMAP
b8
c4
84
80
80
80
80
80
ENDCHAR
STARTCHAR U+0073 LATIN SMALL LETTER S
ENCODING 115
SWIDTH 500 0
DWIDTH 8 0
BBX 6 8 1 0
BITMAP
78
84
80
60
18
04
84
78
ENDCHAR
STARTCHAR U+0074 LATIN SMALL LETTER T
ENCODING 116
SWIDTH 500 0
DWIDTH 8 0
BBX 5 10 1 0
BITMAP
20
20
f8
20
20
20
20
20
20
18
ENDCHAR
STARTCHAR U+0075 LATIN SMALL LETTER U
ENCODING 117
SWIDTH 500 0
DWIDTH 8 0
BBX 6 8 1 0
BITMAP
84
84
84
84
84
84
8c
74
ENDCHAR
STARTCHAR U+0076 LATIN SMALL LETTER V
ENCODING 118
SWIDTH 500 0
DWIDTH 8 0
BBX 6 8 1 0
BITMAP
84
84
84
48
48
48
30
30
ENDCHAR
STARTCHAR U+0077 LATIN SMALL LETTER W
ENCODING 119
SWIDTH 500 0
DWIDTH 8 0
BBX 7 8 1 0
BITMAP
82
92
92
92
92
92
92
6c
ENDCHAR
STARTCHAR U+0078 LATIN SMALL LETTER X
ENCODING 120
SWIDTH 500 0
DWIDTH 8 0
BBX 6 8 1 0
BITMAP
84
84
48
30
30
48
84
84
ENDCHAR
STARTCHAR U+0079 LATIN SMALL LETTER Y
ENCODING 121
SWIDTH 500 0
DWIDTH 8 0
BBX 6 10 1 -2
BITMAP
84
84
84
84
84
4c
34
04
04
78
ENDCHAR
STARTCHAR U+007A LATIN SMALL LETTER Z
ENCODING 122
SWIDTH 500 0
DWIDTH 8 0
BBX 6 8 1 0
BITMAP
fc
04
08
10
20
40
80
fc
ENDCHAR
STARTCHAR U+007B LEFT CURLY BRACKET
ENCODING 123
SWIDTH 500 0
DWIDTH 8 0
BBX 3 12 3 -1
BITMAP
60
80
80
40
40
80
80
40
40
80
80
60
ENDCHAR
STARTCHAR U+007C VERTICAL LINE
ENCODING 124
SWIDTH 500 0
DWIDTH 8 0
BBX 1 14 4 -2
BITMAP
80
80
80
80
80
80
80
80
80
80
80
80
80
80
ENDCHAR
STARTCHAR U+007D RIGHT CURLY BRACKET
ENCODING 125
SWIDTH 500 0
DWIDTH 8 0
BBX 3 12 2 -1
BITMAP
c0
20
20
40
40
20
20
40
40
20
20
c0
ENDCHAR
STARTCHAR U+007E TILDE
ENCODING 126
SWIDTH 500 0
DWIDTH 8 0
BBX 7 3 1 8
BITMAP
62
92
8c
ENDCHAR
STARTCHAR C201
ENCODING 129
SWIDTH 500 0
DWIDTH 8 0
BBX 6 12 1 0
BITMAP
18
60
00
00
fc
80
80
80
80
80
80
80
ENDCHAR
STARTCHAR C204
ENCODING 132
SWIDTH 500 0
DWIDTH 8 0
BBX 7 8 0 0
BITMAP
7e
40
40
f8
40
40
40
40
ENDCHAR
STARTCHAR C206
ENCODING 134
SWIDTH 500 0
DWIDTH 8 0
BBX 7 10 1 -2
BITMAP
8c
90
a0
c0
a0
90
88
84
04
06
ENDCHAR
STARTCHAR C210
ENCODING 136
SWIDTH 500 0
DWIDTH 8 0
BBX 7 10 1 -2
BITMAP
84
cc
48
30
30
48
cc
84
04
02
ENDCHAR
STARTCHAR C212
ENCODING 138
SWIDTH 500 0
DWIDTH 8 0
BBX 7 10 0 0
BITMAP
7e
40
40
40
f8
40
40
40
40
40
ENDCHAR
STARTCHAR C213
ENCODING 139
SWIDTH 500 0
DWIDTH 8 0
BBX 7 9 1 -2
BITMAP
84
84
48
30
48
84
84
04
02
ENDCHAR
STARTCHAR C215
ENCODING 141
SWIDTH 500 0
DWIDTH 8 0
BBX 7 12 1 -2
BITMAP
84
88
90
a0
c0
c0
a0
90
88
84
04
02
ENDCHAR
STARTCHAR C216
ENCODING 142
SWIDTH 500 0
DWIDTH 8 0
BBX 7 12 1 -2
BITMAP
84
84
48
48
30
30
78
48
84
84
04
02
ENDCHAR
STARTCHAR U+00A0 NO-BREAK SPACE
ENCODING 160
SWIDTH 500 0
DWIDTH 8 0
BBX 0 0 0 0
BITMAP
ENDCHAR
STARTCHAR U+0401 CYRILLIC CAPITAL LETTER IO
ENCODING 161
SWIDTH 500 0
DWIDTH 8 0
BBX 6 14 1 0
BITMAP
48
48
00
00
fc
80
80
80
f8
80
80
80
80
fc
ENDCHAR
STARTCHAR U+0402 CYRILLIC CAPITAL LETTER DJE
ENCODING 162
SWIDTH 500 0
DWIDTH 8 0
BBX 7 10 1 0
BITMAP
fc
20
20
20
3c
22
22
22
22
2c
ENDCHAR
STARTCHAR U+0403 CYRILLIC CAPITAL LETTER GJE
ENCODING 163
SWIDTH 500 0
DWIDTH 8 0
BBX 7 10 0 0
BITMAP
7e
40
40
40
f8
40
40
40
40
40
ENDCHAR
STARTCHAR U+0404 CYRILLIC CAPITAL LETTER UKRAINIAN IE
ENCODING 164
SWIDTH 500 0
DWIDTH 8 0
BBX 6 10 1 0
BITMAP
38
44
80
80
f8
80
80
80
44
38
ENDCHAR
STARTCHAR U+0405 CYRILLIC CAPITAL LETTER DZE
ENCODING 165
SWIDTH 500 0
DWIDTH 8 0
BBX 6 10 1 0
BITMAP
78
84
84
80
60
18
04
84
84
78
ENDCHAR
STARTCHAR U+0406 CYRILLIC CAPITAL LETTER BYELORUSSIAN-UKRAINIAN I
ENCODING 166
SWIDTH 500 0
DWIDTH 8 0
BBX 5 10 2 0
BITMAP
f8
20
20
20
20
20
20
20
20
f8
ENDCHAR
STARTCHAR U+0407 CYRILLIC CAPITAL LETTER YI
ENCODING 167
SWIDTH 500 0
DWIDTH 8 0
BBX 5 14 2 0
BITMAP
90
90
00
00
f8
20
20
20
20
20
20
20
20
f8
ENDCHAR
STARTCHAR U+0408 CYRILLIC CAPITAL LETTER JE
ENCODING 168
SWIDTH 500 0
DWIDTH 8 0
BBX 6 10 1 0
BITMAP
1c
08
08
08
08
08
08
88
88
70
ENDCHAR
STARTCHAR U+0409 CYRILLIC CAPITAL LETTER LJE
ENCODING 169
SWIDTH 500 0
DWIDTH 8 0
BBX 8 10 0 0
BITMAP
78
48
48
48
4e
49
49
49
49
8e
ENDCHAR
STARTCHAR U+040A CYRILLIC CAPITAL LETTER NJE
ENCODING 170
SWIDTH 500 0
DWIDTH 8 0
BBX 7 10 1 0
BITMAP
90
90
90
90
fc
92
92
92
92
9c
ENDCHAR
STARTCHAR U+040B CYRILLIC CAPITAL LETTER TSHE
ENCODING 171
SWIDTH 500 0
DWIDTH 8 0
BBX 7 10 1 0
BITMAP
fc
20
20
20
3c
22
22
22
22
22
ENDCHAR
STARTCHAR U+040C CYRILLIC CAPITAL LETTER KJE
ENCODING 172
SWIDTH 500 0
DWIDTH 8 0
BBX 7 12 1 -2
BITMAP
84
88
90
a0
c0
c0
a0
90
88
84
04
06
ENDCHAR
STARTCHAR U+00AD SOFT HYPHEN
ENCODING 173
SWIDTH 500 0
DWIDTH 8 0
BBX 6 1 1 4
BITMAP
fc
ENDCHAR
STARTCHAR U+040E CYRILLIC CAPITAL LETTER SHORT U
ENCODING 174
SWIDTH 500 0
DWIDTH 8 0
BBX 7 14 1 0
BITMAP
84
84
78
00
82
82
44
44
28
28
10
10
20
60
ENDCHAR
STARTCHAR U+040F CYRILLIC CAPITAL LETTER DZHE
ENCODING 175
SWIDTH 500 0
DWIDTH 8 0
BBX 7 12 1 -2
BITMAP
84
84
48
48
30
30
48
48
84
84
04
06
ENDCHAR
STARTCHAR U+0410 CYRILLIC CAPITAL LETTER A
ENCODING 176
SWIDTH 500 0
DWIDTH 8 0
BBX 6 10 1 0
BITMAP
30
48
48
84
84
fc
84
84
84
84
ENDCHAR
STARTCHAR U+0411 CYRILLIC CAPITAL LETTER BE
ENCODING 177
SWIDTH 500 0
DWIDTH 8 0
BBX 6 10 1 0
BITMAP
f8
80
80
80
f8
84
84
84
84
f8
ENDCHAR
STARTCHAR U+0412 CYRILLIC CAPITAL LETTER VE
ENCODING 178
SWIDTH 500 0
DWIDTH 8 0
BBX 6 10 1 0
BITMAP
f8
84
84
84
f8
84
84
84
84
f8
ENDCHAR
STARTCHAR U+0413 CYRILLIC CAPITAL LETTER GHE
ENCODING 179
SWIDTH 500 0
DWIDTH 8 0
BBX 6 10 1 0
BITMAP
fc
80
80
80
80
80
80
80
80
80
ENDCHAR
STARTCHAR U+0414 CYRILLIC CAPITAL LETTER DE
ENCODING 180
SWIDTH 500 0
DWIDTH 8 0
BBX 8 12 0 -2
BITMAP
0e
12
12
12
22
22
22
42
42
ff
81
81
ENDCHAR
STARTCHAR U+0415 CYRILLIC CAPITAL LETTER IE
ENCODING 181
SWIDTH 500 0
DWIDTH 8 0
BBX 6 10 1 0
BITMAP
fc
80
80
80
f8
80
80
80
80
fc
ENDCHAR
STARTCHAR U+0416 CYRILLIC CAPITAL LETTER ZHE
ENCODING 182
SWIDTH 500 0
DWIDTH 8 0
BBX 7 10 1 0
BITMAP
92
92
54
54
38
38
54
54
92
92
ENDCHAR
STARTCHAR U+0417 CYRILLIC CAPITAL LETTER ZE
ENCODING 183
SWIDTH 500 0
DWIDTH 8 0
BBX 6 10 1 0
BITMAP
78
84
04
04
78
08
04
04
84
78
ENDCHAR
STARTCHAR U+0418 CYRILLIC CAPITAL LETTER I
ENCODING 184
SWIDTH 500 0
DWIDTH 8 0
BBX 6 10 1 0
BITMAP
84
8c
8c
94
94
a4
a4
c4
c4
84
ENDCHAR
STARTCHAR U+0419 CYRILLIC CAPITAL LETTER SHORT I
ENCODING 185
SWIDTH 500 0
DWIDTH 8 0
BBX 6 14 1 0
BITMAP
84
84
78
00
84
8c
8c
94
94
a4
a4
c4
c4
84
ENDCHAR
STARTCHAR U+041A CYRILLIC CAPITAL LETTER KA
ENCODING 186
SWIDTH 500 0
DWIDTH 8 0
BBX 6 10 1 0
BITMAP
84
88
90
a0
c0
c0
a0
90
88
84
ENDCHAR
STARTCHAR U+041B CYRILLIC CAPITAL LETTER EL
ENCODING 187
SWIDTH 500 0
DWIDTH 8 0
BBX 6 10 1 0
BITMAP
3c
24
24
24
24
24
24
44
44
84
ENDCHAR
STARTCHAR U+041C CYRILLIC CAPITAL LETTER EM
ENCODING 188
SWIDTH 500 0
DWIDTH 8 0
BBX 6 10 1 0
BITMAP
84
84
cc
cc
b4
b4
84
84
84
84
ENDCHAR
STARTCHAR U+041D CYRILLIC CAPITAL LETTER EN
ENCODING 189
SWIDTH 500 0
DWIDTH 8 0
BBX 6 10 1 0
BITMAP
84
84
84
84
fc
84
84
84
84
84
ENDCHAR
STARTCHAR U+041E CYRILLIC CAPITAL LETTER O
ENCODING 190
SWIDTH 500 0
DWIDTH 8 0
BBX 6 10 1 0
BITMAP
78
84
84
84
84
84
84
84
84
78
ENDCHAR
STARTCHAR U+041F CYRILLIC CAPITAL LETTER PE
ENCODING 191
SWIDTH 500 0
DWIDTH 8 0
BBX 6 10 1 0
BITMAP
fc
84
84
84
84
84
84
84
84
84
ENDCHAR
STARTCHAR U+0420 CYRILLIC CAPITAL LETTER ER
ENCODING 192
SWIDTH 500 0
DWIDTH 8 0
BBX 6 10 1 0
BITMAP
f8
84
84
84
f8
80
80
80
80
80
ENDCHAR
STARTCHAR U+0421 CYRILLIC CAPITAL LETTER ES
ENCODING 193
SWIDTH 500 0
DWIDTH 8 0
BBX 6 10 1 0
BITMAP
78
84
84
80
80
80
80
84
84
78
ENDCHAR
STARTCHAR U+0422 CYRILLIC CAPITAL LETTER TE
ENCODING 194
SWIDTH 500 0
DWIDTH 8 0
BBX 7 10 1 0
BITMAP
fe
10
10
10
10
10
10
10
10
10
ENDCHAR
STARTCHAR U+0423 CYRILLIC CAPITAL LETTER U
ENCODING 195
SWIDTH 500 0
DWIDTH 8 0
BBX 7 10 1 0
BITMAP
82
82
44
44
28
28
10
10
20
60
ENDCHAR
STARTCHAR U+0424 CYRILLIC CAPITAL LETTER EF
ENCODING 196
SWIDTH 500 0
DWIDTH 8 0
BBX 7 11 1 0
BITMAP
10
10
7c
92
92
92
92
92
7c
10
10
ENDCHAR
STARTCHAR U+0425 CYRILLIC CAPITAL LETTER HA
ENCODING 197
SWIDTH 500 0
DWIDTH 8 0
BBX 6 10 1 0
BITMAP
84
84
48
48
30
30
48
48
84
84
ENDCHAR
STARTCHAR U+0426 CYRILLIC CAPITAL LETTER TSE
ENCODING 198
SWIDTH 500 0
DWIDTH 8 0
BBX 7 12 1 -2
BITMAP
84
84
84
84
84
84
84
84
84
fe
02
02
ENDCHAR
STARTCHAR U+0427 CYRILLIC CAPITAL LETTER CHE
ENCODING 199
SWIDTH 500 0
DWIDTH 8 0
BBX 6 10 1 0
BITMAP
84
84
84
84
84
8c
74
04
04
04
ENDCHAR
STARTCHAR U+0428 CYRILLIC CAPITAL LETTER SHA
ENCODING 200
SWIDTH 500 0
DWIDTH 8 0
BBX 7 10 1 0
BITMAP
92
92
92
92
92
92
92
92
92
fe
ENDCHAR
STARTCHAR U+0429 CYRILLIC CAPITAL LETTER SHCHA
ENCODING 201
SWIDTH 500 0
DWIDTH 8 0
BBX 7 12 1 -2
BITMAP
92
92
92
92
92
92
92
92
92
fe
02
02
ENDCHAR
STARTCHAR U+042A CYRILLIC CAPITAL LETTER HARD SIGN
ENCODING 202
SWIDTH 500 0
DWIDTH 8 0
BBX 7 10 1 0
BITMAP
e0
20
20
20
3c
22
22
22
22
3c
ENDCHAR
STARTCHAR U+042B CYRILLIC CAPITAL LETTER YERU
ENCODING 203
SWIDTH 500 0
DWIDTH 8 0
BBX 6 10 1 0
BITMAP
84
84
84
84
e4
94
94
94
94
e4
ENDCHAR
STARTCHAR U+042C CYRILLIC CAPITAL LETTER SOFT SIGN
ENCODING 204
SWIDTH 500 0
DWIDTH 8 0
BBX 6 10 1 0
BITMAP
80
80
80
80
f8
84
84
84
84
f8
ENDCHAR
STARTCHAR U+042D CYRILLIC CAPITAL LETTER E
ENCODING 205
SWIDTH 500 0
DWIDTH 8 0
BBX 6 10 1 0
BITMAP
70
88
04
04
7c
04
04
04
88
70
ENDCHAR
STARTCHAR U+042E CYRILLIC CAPITAL LETTER YU
ENCODING 206
SWIDTH 500 0
DWIDTH 8 0
BBX 6 10 1 0
BITMAP
98
a4
a4
a4
e4
a4
a4
a4
a4
98
ENDCHAR
STARTCHAR U+042F CYRILLIC CAPITAL LETTER YA
ENCODING 207
SWIDTH 500 0
DWIDTH 8 0
BBX 6 10 1 0
BITMAP
7c
84
84
84
7c
24
44
44
84
84
ENDCHAR
STARTCHAR U+0430 CYRILLIC SMALL LETTER A
ENCODING 208
SWIDTH 500 0
DWIDTH 8 0
BBX 6 8 1 0
BITMAP
78
84
04
7c
84
84
8c
74
ENDCHAR
STARTCHAR U+0431 CYRILLIC SMALL LETTER BE
ENCODING 209
SWIDTH 500 0
DWIDTH 8 0
BBX 6 12 1 0
BITMAP
04
38
40
80
f8
84
84
84
84
84
84
78
ENDCHAR
STARTCHAR U+0432 CYRILLIC SMALL LETTER VE
ENCODING 210
SWIDTH 500 0
DWIDTH 8 0
BBX 6 8 1 0
BITMAP
f8
84
84
f8
84
84
84
f8
ENDCHAR
STARTCHAR U+0433 CYRILLIC SMALL LETTER GHE
ENCODING 211
SWIDTH 500 0
DWIDTH 8 0
BBX 6 8 1 0
BITMAP
fc
80
80
80
80
80
80
80
ENDCHAR
STARTCHAR U+0434 CYRILLIC SMALL LETTER DE
ENCODING 212
SWIDTH 500 0
DWIDTH 8 0
BBX 8 9 0 -1
BITMAP
1e
12
22
22
42
42
42
ff
81
ENDCHAR
STARTCHAR U+0435 CYRILLIC SMALL LETTER IE
ENCODING 213
SWIDTH 500 0
DWIDTH 8 0
BBX 6 8 1 0
BITMAP
78
84
84
fc
80
80
84
78
ENDCHAR
STARTCHAR U+0436 CYRILLIC SMALL LETTER ZHE
ENCODING 214
SWIDTH 500 0
DWIDTH 8 0
BBX 7 8 1 0
BITMAP
92
92
54
38
38
54
92
92
ENDCHAR
STARTCHAR U+0437 CYRILLIC SMALL LETTER ZE
ENCODING 215
SWIDTH 500 0
DWIDTH 8 0
BBX 6 8 1 0
BITMAP
78
84
04
78
08
04
84
78
ENDCHAR
STARTCHAR U+0438 CYRILLIC SMALL LETTER I
ENCODING 216
SWIDTH 500 0
DWIDTH 8 0
BBX 6 8 1 0
BITMAP
8c
8c
94
94
a4
a4
c4
c4
ENDCHAR
STARTCHAR U+0439 CYRILLIC SMALL LETTER SHORT I
ENCODING 217
SWIDTH 500 0
DWIDTH 8 0
BBX 6 13 1 0
BITMAP
48
48
30
00
00
8c
8c
94
94
a4
a4
c4
c4
ENDCHAR
STARTCHAR U+043A CYRILLIC SMALL LETTER KA
ENCODING 218
SWIDTH 500 0
DWIDTH 8 0
BBX 6 8 1 0
BITMAP
8c
90
a0
c0
a0
90
88
84
ENDCHAR
STARTCHAR U+043B CYRILLIC SMALL LETTER EL
ENCODING 219
SWIDTH 500 0
DWIDTH 8 0
BBX 6 8 1 0
BITMAP
3c
24
24
24
24
44
44
84
ENDCHAR
STARTCHAR U+043C CYRILLIC SMALL LETTER EM
ENCODING 220
SWIDTH 500 0
DWIDTH 8 0
BBX 6 8 1 0
BITMAP
84
cc
cc
b4
b4
84
84
84
ENDCHAR
STARTCHAR U+043D CYRILLIC SMALL LETTER EN
ENCODING 221
SWIDTH 500 0
DWIDTH 8 0
BBX 6 8 1 0
BITMAP
84
84
84
fc
84
84
84
84
ENDCHAR
STARTCHAR U+043E CYRILLIC SMALL LETTER O
ENCODING 222
SWIDTH 500 0
DWIDTH 8 0
BBX 6 8 1 0
BITMAP
78
84
84
84
84
84
84
78
ENDCHAR
STARTCHAR U+043F CYRILLIC SMALL LETTER PE
ENCODING 223
SWIDTH 500 0
DWIDTH 8 0
BBX 6 8 1 0
BITMAP
fc
84
84
84
84
84
84
84
ENDCHAR
STARTCHAR U+0440 CYRILLIC SMALL LETTER ER
ENCODING 224
SWIDTH 500 0
DWIDTH 8 0
BBX 6 10 1 -2
BITMAP
b8
c4
84
84
84
84
c4
b8
80
80
ENDCHAR
STARTCHAR U+0441 CYRILLIC SMALL LETTER ES
ENCODING 225
SWIDTH 500 0
DWIDTH 8 0
BBX 6 8 1 0
BITMAP
78
84
80
80
80
80
84
78
ENDCHAR
STARTCHAR U+0442 CYRILLIC SMALL LETTER TE
ENCODING 226
SWIDTH 500 0
DWIDTH 8 0
BBX 7 8 1 0
BITMAP
fe
10
10
10
10
10
10
10
ENDCHAR
STARTCHAR U+0443 CYRILLIC SMALL LETTER U
ENCODING 227
SWIDTH 500 0
DWIDTH 8 0
BBX 6 10 1 -2
BITMAP
84
84
48
48
30
30
20
20
40
c0
ENDCHAR
STARTCHAR U+0444 CYRILLIC SMALL LETTER EF
ENCODING 228
SWIDTH 500 0
DWIDTH 8 0
BBX 7 10 1 -1
BITMAP
10
10
7c
92
92
92
92
7c
10
10
ENDCHAR
STARTCHAR U+0445 CYRILLIC SMALL LETTER HA
ENCODING 229
SWIDTH 500 0
DWIDTH 8 0
BBX 6 8 1 0
BITMAP
84
84
48
30
30
48
84
84
ENDCHAR
STARTCHAR U+0446 CYRILLIC SMALL LETTER TSE
ENCODING 230
SWIDTH 500 0
DWIDTH 8 0
BBX 7 10 1 -2
BITMAP
84
84
84
84
84
84
84
fe
02
02
ENDCHAR
STARTCHAR U+0447 CYRILLIC SMALL LETTER CHE
ENCODING 231
SWIDTH 500 0
DWIDTH 8 0
BBX 6 8 1 0
BITMAP
84
84
84
84
8c
74
04
04
ENDCHAR
STARTCHAR U+0448 CYRILLIC SMALL LETTER SHA
ENCODING 232
SWIDTH 500 0
DWIDTH 8 0
BBX 7 8 1 0
BITMAP
92
92
92
92
92
92
92
fe
ENDCHAR
STARTCHAR U+0449 CYRILLIC SMALL LETTER SHCHA
ENCODING 233
SWIDTH 500 0
DWIDTH 8 0
BBX 7 10 1 -2
BITMAP
92
92
92
92
92
92
92
fe
02
02
ENDCHAR
STARTCHAR U+044A CYRILLIC SMALL LETTER HARD SIGN
ENCODING 234
SWIDTH 500 0
DWIDTH 8 0
BBX 7 8 1 0
BITMAP
e0
20
20
3c
22
22
22
3c
ENDCHAR
STARTCHAR U+044B CYRILLIC SMALL LETTER YERU
ENCODING 235
SWIDTH 500 0
DWIDTH 8 0
BBX 6 8 1 0
BITMAP
84
84
84
e4
94
94
94
e4
ENDCHAR
STARTCHAR U+044C CYRILLIC SMALL LETTER SOFT SIGN
ENCODING 236
SWIDTH 500 0
DWIDTH 8 0
BBX 6 8 1 0
BITMAP
80
80
80
f8
84
84
84
f8
ENDCHAR
STARTCHAR U+044D CYRILLIC SMALL LETTER E
ENCODING 237
SWIDTH 500 0
DWIDTH 8 0
BBX 6 8 1 0
BITMAP
70
88
04
7c
04
04
88
70
ENDCHAR
STARTCHAR U+044E CYRILLIC SMALL LETTER YU
ENCODING 238
SWIDTH 500 0
DWIDTH 8 0
BBX 6 8 1 0
BITMAP
98
a4
a4
e4
a4
a4
a4
98
ENDCHAR
STARTCHAR U+044F CYRILLIC SMALL LETTER YA
ENCODING 239
SWIDTH 500 0
DWIDTH 8 0
BBX 6 8 1 0
BITMAP
7c
84
84
84
7c
24
44
84
ENDCHAR
STARTCHAR U+2116 NUMERO SIGN
ENCODING 240
SWIDTH 500 0
DWIDTH 8 0
BBX 7 10 1 0
BITMAP
90
90
d0
d0
d4
ba
ba
b4
90
9e
ENDCHAR
STARTCHAR U+0451 CYRILLIC SMALL LETTER IO
ENCODING 241
SWIDTH 500 0
DWIDTH 8 0
BBX 6 12 1 0
BITMAP
48
48
00
00
78
84
84
fc
80
80
84
78
ENDCHAR
STARTCHAR U+0452 CYRILLIC SMALL LETTER DJE
ENCODING 242
SWIDTH 500 0
DWIDTH 8 0
BBX 6 11 1 -1
BITMAP
40
40
f0
40
40
78
44
44
44
44
18
ENDCHAR
STARTCHAR U+0453 CYRILLIC SMALL LETTER GJE
ENCODING 243
SWIDTH 500 0
DWIDTH 8 0
BBX 7 8 0 0
BITMAP
7e
40
40
f8
40
40
40
40
ENDCHAR
STARTCHAR U+0454 CYRILLIC SMALL LETTER UKRAINIAN IE
ENCODING 244
SWIDTH 500 0
DWIDTH 8 0
BBX 6 8 1 0
BITMAP
38
44
80
f8
80
80
44
38
ENDCHAR
STARTCHAR U+0455 CYRILLIC SMALL LETTER DZE
ENCODING 245
SWIDTH 500 0
DWIDTH 8 0
BBX 6 8 1 0
BITMAP
78
84
80
60
18
04
84
78
ENDCHAR
STARTCHAR U+0456 CYRILLIC SMALL LETTER BYELORUSSIAN-UKRAINIAN I
ENCODING 246
SWIDTH 500 0
DWIDTH 8 0
BBX 5 11 2 0
BITMAP
20
20
00
60
20
20
20
20
20
20
f8
ENDCHAR
STARTCHAR U+0457 CYRILLIC SMALL LETTER YI
ENCODING 247
SWIDTH 500 0
DWIDTH 8 0
BBX 5 11 2 0
BITMAP
90
90
00
60
20
20
20
20
20
20
f8
ENDCHAR
STARTCHAR U+0458 CYRILLIC SMALL LETTER JE
ENCODING 248
SWIDTH 500 0
DWIDTH 8 0
BBX 5 13 1 -2
BITMAP
08
08
00
18
08
08
08
08
08
08
08
90
60
ENDCHAR
STARTCHAR U+0459 CYRILLIC SMALL LETTER LJE
ENCODING 249
SWIDTH 500 0
DWIDTH 8 0
BBX 8 8 0 0
BITMAP
78
48
48
4e
49
49
49
8e
ENDCHAR
STARTCHAR U+045A CYRILLIC SMALL LETTER NJE
ENCODING 250
SWIDTH 500 0
DWIDTH 8 0
BBX 7 8 1 0
BITMAP
90
90
90
fc
92
92
92
9c
ENDCHAR
STARTCHAR C373
ENCODING 251
SWIDTH 500 0
DWIDTH 8 0
BBX 7 12 1 -2
BITMAP
84
88
90
a0
c0
c0
a0
90
88
84
04
06
ENDCHAR
STARTCHAR U+045C CYRILLIC SMALL LETTER KJE
ENCODING 252
SWIDTH 500 0
DWIDTH 8 0
BBX 7 10 1 -2
BITMAP
8c
90
a0
c0
a0
90
88
84
04
06
ENDCHAR
STARTCHAR U+00A7 SECTION SIGN
ENCODING 253
SWIDTH 500 0
DWIDTH 8 0
BBX 6 10 1 0
BITMAP
78
84
80
78
84
84
78
04
84
78
ENDCHAR
STARTCHAR U+045E CYRILLIC SMALL LETTER SHORT U
ENCODING 254
SWIDTH 500 0
DWIDTH 8 0
BBX 6 15 1 -2
BITMAP
48
48
30
00
00
84
84
48
48
30
30
20
20
40
c0
ENDCHAR
STARTCHAR U+045F CYRILLIC SMALL LETTER DZHE
ENCODING 255
SWIDTH 500 0
DWIDTH 8 0
BBX 7 10 1 -2
BITMAP
84
84
48
30
30
48
84
84
04
06
ENDCHAR
ENDFONT
